<?xml version="1.0" standalone="no"?><!DOCTYPE svg PUBLIC "-//W3C//DTD SVG 1.1//EN" "http://www.w3.org/Graphics/SVG/1.1/DTD/svg11.dtd"><svg t="1767000678212" class="icon" viewBox="0 0 1024 1024" version="1.1" xmlns="http://www.w3.org/2000/svg" p-id="27071" xmlns:xlink="http://www.w3.org/1999/xlink" width="200" height="200"><path d="M512 42.666667a469.077333 469.077333 0 0 1 427.52 662.613333l-84.437333-47.872A372.693333 372.693333 0 0 0 188.8 326.698667a372.693333 372.693333 0 0 0 623.061333 406.357333l160.213334 98.261333-46.805334 81.152-95.701333-55.168A469.077333 469.077333 0 0 1 60.544 384.042667 469.162667 469.162667 0 0 1 512 42.666667z m0 187.562666c58.538667 0 112.981333 17.92 157.994667 48.512L614.826667 357.973333a185.002667 185.002667 0 1 0 45.696 264.362667l79.104 55.466667a281.557333 281.557333 0 0 1-502.869334-224.512A281.557333 281.557333 0 0 1 512 230.229333z m0 176.426667c24.32 0 46.72 8.234667 64.554667 22.101333l-37.12 53.930667a40.106667 40.106667 0 1 0 7.594666 48.64l53.333334 37.802667a105.258667 105.258667 0 1 1-88.32-162.56v0.085333z" fill="#1890FF" p-id="27072"></path></svg>